Gladiator 2000 Theatrical Brrip 720p(Dual Audio)(Hindi-English)~JAGJIT639~KHARAY-=KSRR=-
 
http://ecx.images-amazon.com/images/I/51GvxqaVobL._SL500_.jpg

 
http://www.imdb.com/title/tt0172495/


Info

General
General

Format : Matroska
File size : 977 MiB
Duration : 2h 34mn
Overall bit rate : 881 Kbps
Encoded date : UTC 2011-10-22 03:16:21
Writing application : mkvmerge v4.3.0 ('Escape from the Island') built on Sep 5 2010 10:30:51
Writing library : libebml v1.0.0 + libmatroska v1.0.0

Video
ID : 1
Format : AVC
Format/Info : Advanced Video Codec
Format profile : High@L3.1
Format settings, CABAC : Yes
Format settings, ReFrames : 4 frames
Muxing mode : Header stripping
Codec ID : V_MPEG4/ISO/AVC
Duration : 2h 34mn
Bit rate : 800 Kbps
Width : 1 280 pixels
Height : 544 pixels
Display aspect ratio : 2.35:1
Frame rate : 25.000 fps
Color space : YUV
Chroma subsampling : 4:2:0
Bit depth : 8 bits
Scan type : Progressive
Bits/(Pixel*Frame) : 0.046
Stream size : 869 MiB (89%)
Language : Hindi

Audio #1
ID : 2
Format : MPEG Audio
Format version : Version 2
Format profile : Layer 3
Mode : Joint stereo
Mode extension : MS Stereo
Muxing mode : Header stripping
Codec ID : A_MPEG/L3
Codec ID/Hint : MP3
Duration : 2h 34mn
Bit rate mode : Constant
Bit rate : 32.0 Kbps
Channel(s) : 2 channels
Sampling rate : 16.0 KHz
Compression mode : Lossy
Stream size : 35.5 MiB (4%)
Title : English Audio -=KSRR=-
Writing library : LAME3.98.4
Language : English

Audio #2
ID : 3
Format : MPEG Audio
Format version : Version 2
Format profile : Layer 3
Mode : Joint stereo
Muxing mode : Header stripping
Codec ID : A_MPEG/L3
Codec ID/Hint : MP3
Duration : 2h 34mn
Bit rate mode : Constant
Bit rate : 48.0 Kbps
Channel(s) : 2 channels
Sampling rate : 22.05 KHz
Compression mode : Lossy
Stream size : 53.2 MiB (5%)
Title : Hindi Audio -=KSRR=-
Language : Hindi

Screen Shots
 
http://www.postimg.com/50000/photo-49836.jpg
 
http://www.postimg.com/50000/photo-49837.jpg
 
http://www.postimg.com/50000/photo-49838.jpg
 
http://www.postimg.com/50000/photo-49839.jpg
 
http://www.postimg.com/50000/photo-49840.jpg
 
http://www.postimg.com/50000/photo-49841.jpg
 
http://www.postimg.com/50000/photo-49842.jpg
 
http://www.postimg.com/50000/photo-49843.jpg
 
http://www.postimg.com/50000/photo-49844.jpg
 
http://www.postimg.com/50000/photo-49845.jpg
 
http://www.postimg.com/50000/photo-49846.jpg
 
http://www.postimg.com/50000/photo-49847.jpg
 
http://www.postimg.com/50000/photo-49848.jpg


SAMPLE INCLUDED IN TORRENT

